<svg xmlns="http://www.w3.org/2000/svg" width="1400" height="760" viewBox="0 0 1400 760">
  <defs>
    <marker id="a" viewBox="0 0 10 10" refX="9" refY="5" markerWidth="9" markerHeight="9" orient="auto-start-reverse"><path d="M0,0 L10,5 L0,10 z" fill="#18262f"/></marker>
    <style>.s{font-family:'Avenir Next','Segoe UI',sans-serif}.m{font-family:'Iowan Old Style',Georgia,serif}.ink{fill:#18262f}.muted{fill:#687984}.blue{fill:#465b8c}.teal{fill:#0f6972}.coral{fill:#c7472f}.arr{stroke:#18262f;stroke-width:8;stroke-linecap:round;marker-end:url(#a)}</style>
  </defs>
  <rect width="1400" height="760" rx="34" fill="#f6f7fb"/>
  <text x="700" y="68" text-anchor="middle" class="s ink" font-size="40" font-weight="700">Доплеровский сдвиг выбирает направление фотона</text>
  <rect x="65" y="110" width="1270" height="385" rx="28" fill="#fff" stroke="#d8ddea" stroke-width="4"/>
  <rect x="105" y="215" width="165" height="190" rx="18" fill="#e9edf7" stroke="#465b8c" stroke-width="5"/>
  <text x="188" y="287" text-anchor="middle" class="s ink" font-size="29" font-weight="700">Sm</text>
  <text x="188" y="328" text-anchor="middle" class="s muted" font-size="23">резонансный</text><text x="188" y="358" text-anchor="middle" class="s muted" font-size="23">поглотитель</text>
  <circle cx="710" cy="310" r="70" fill="#465b8c"/><text x="710" y="330" text-anchor="middle" class="m" font-size="50" fill="#fff">B*</text>
  <path d="M 635 310 H 400" class="arr"/><text x="515" y="288" text-anchor="middle" class="s muted" font-size="25">отдача</text>
  <path d="M 785 310 H 1090" class="arr"/><circle cx="1160" cy="310" r="43" fill="#0f6972"/><text x="1160" y="327" text-anchor="middle" class="m" font-size="43" fill="#fff">ν</text>
  <path d="M 645 275 C 590 245, 565 245, 510 275 C 455 305, 430 305, 350 275" fill="none" stroke="#0f6972" stroke-width="9" stroke-linecap="round"/>
  <text x="490" y="223" text-anchor="middle" class="m teal" font-size="34">γ: E↑</text>
  <circle cx="300" cy="275" r="16" fill="#0f6972"/><circle cx="282" cy="275" r="35" fill="none" stroke="#0f6972" stroke-width="7" opacity=".35"/>
  <path d="M 760 245 C 820 205, 855 205, 915 245 C 975 285, 1010 285, 1070 245" fill="none" stroke="#c7472f" stroke-width="9" stroke-linecap="round"/>
  <text x="920" y="187" text-anchor="middle" class="m coral" font-size="34">γ: E↓</text>
  <text x="490" y="450" text-anchor="middle" class="s teal" font-size="27" font-weight="700">вдоль отдачи: резонанс</text>
  <text x="920" y="450" text-anchor="middle" class="s coral" font-size="27" font-weight="700">против отдачи: мимо резонанса</text>
  <rect x="65" y="545" width="1270" height="150" rx="26" fill="#e9edf7"/>
  <line x1="170" y1="625" x2="1230" y2="625" stroke="#687984" stroke-width="6" stroke-linecap="round"/>
  <line x1="610" y1="585" x2="610" y2="665" stroke="#c7472f" stroke-width="9"/><line x1="790" y1="575" x2="790" y2="675" stroke="#0f6972" stroke-width="11"/>
  <text x="610" y="570" text-anchor="middle" class="m coral" font-size="27">E₀ − Eᵣ</text>
  <text x="790" y="560" text-anchor="middle" class="m teal" font-size="27">E₀ + Eᵣ</text>
  <path d="M 625 600 H 770" class="arr"/><text x="700" y="685" text-anchor="middle" class="s ink" font-size="25">доплеровский сдвиг закрывает разрыв 2Eᵣ</text>
</svg>
