<svg xmlns="http://www.w3.org/2000/svg" width="1400" height="760" viewBox="0 0 1400 760">
  <defs><style>.s{font-family:'Avenir Next','Segoe UI',sans-serif}.m{font-family:'Iowan Old Style',Georgia,serif}.ink{fill:#18262f}.muted{fill:#687984}.gold{fill:#9a6b17}</style></defs>
  <rect width="1400" height="760" rx="34" fill="#f8f6f0"/>
  <text x="700" y="72" text-anchor="middle" class="s ink" font-size="42" font-weight="700">KATRIN измеряет интеграл выше порога</text>
  <rect x="95" y="125" width="1210" height="500" rx="24" fill="#fff" stroke="#ded8ca" stroke-width="4"/>
  <line x1="180" y1="550" x2="1240" y2="550" stroke="#18262f" stroke-width="5"/><line x1="180" y1="550" x2="180" y2="185" stroke="#18262f" stroke-width="5"/>
  <g stroke="#d9dfe2" stroke-width="2"><line x1="390" y1="185" x2="390" y2="550"/><line x1="600" y1="185" x2="600" y2="550"/><line x1="810" y1="185" x2="810" y2="550"/><line x1="1020" y1="185" x2="1020" y2="550"/><line x1="180" y1="455" x2="1240" y2="455"/><line x1="180" y1="360" x2="1240" y2="360"/><line x1="180" y1="265" x2="1240" y2="265"/></g>
  <path d="M180 200 C370 300 545 405 705 475 C850 530 1010 552 1240 550" fill="none" stroke="#2f6f9f" stroke-width="10"/>
  <path d="M815 512 C950 542 1080 552 1240 550 L1240 550 L815 550 Z" fill="#9a6b17" opacity=".36"/>
  <path d="M815 512 C950 542 1080 552 1240 550" fill="none" stroke="#9a6b17" stroke-width="8"/>
  <line x1="815" y1="180" x2="815" y2="550" stroke="#9a6b17" stroke-width="5" stroke-dasharray="12 10"/>
  <line x1="850" y1="180" x2="850" y2="550" stroke="#687984" stroke-width="4" stroke-dasharray="8 9"/>
  <text x="815" y="165" text-anchor="middle" class="m gold" font-size="28">e|U|</text><text x="850" y="205" class="m muted" font-size="25">e|U|+ΔE</text>
  <text x="980" y="450" class="s gold" font-size="29" font-weight="700">прошедшие электроны</text>
  <text x="455" y="310" class="m" fill="#2f6f9f" font-size="30">дифференциальный β-спектр</text>
  <text x="710" y="675" text-anchor="middle" class="m ink" font-size="30">энергия электрона E</text>
  <text x="52" y="385" text-anchor="middle" class="m ink" font-size="30" transform="rotate(-90 52 385)">dΓ/dE</text>
  <text x="700" y="720" text-anchor="middle" class="s muted" font-size="25">перестраивая U, эксперимент сканирует интегральную форму конца спектра</text>
</svg>
