<svg xmlns="http://www.w3.org/2000/svg" width="1280" height="590" viewBox="0 0 1280 590" role="img"><title>Малый и большой объём после задерживающего барьера</title><defs><marker id="arrow" viewBox="0 0 10 10" refX="9" refY="5" markerWidth="8" markerHeight="8" orient="auto-start-reverse"><path d="M 0 0 L 10 5 L 0 10 z" fill="context-stroke"/></marker></defs><rect width="1280" height="590" fill="#000"/><text x="520" y="45" fill="#f2f2f2" font-family="DejaVu Sans, sans-serif" font-size="29" text-anchor="middle" font-weight="normal"><tspan x="520" dy="0">Симметричная конфигурация</tspan></text><rect x="50" y="80" width="965" height="145" rx="12" fill="#101820" stroke="#b8c7d1" stroke-width="2.5"/><text x="532.5" y="161.14" fill="#b8c7d1" font-family="DejaVu Sans, sans-serif" font-size="27" text-anchor="middle" font-weight="normal"><tspan x="532.5" dy="0"></tspan></text><rect x="470" y="83" width="540" height="139" fill="#ff9ab0" opacity=".18"/><path d="M470,80 L470,225" stroke="#ffcc8a" stroke-width="4"/><text x="470" y="260" fill="#ffcc8a" font-family="DejaVu Sans, sans-serif" font-size="24" text-anchor="middle" font-weight="normal"><tspan x="470" dy="0">барьер</tspan></text><rect x="1100" y="118" width="135" height="62" rx="12" fill="#101820" stroke="#7cc7ff" stroke-width="2.5"/><text x="1167.5" y="156.04" fill="#7cc7ff" font-family="DejaVu Sans, sans-serif" font-size="22" text-anchor="middle" font-weight="normal"><tspan x="1167.5" dy="0">детектор</tspan></text><path d="M1023,148 L1090,148" fill="none" stroke="#7cc7ff" stroke-width="3" marker-end="url(#arrow)"/><text x="740.0" y="150" fill="#ff9ab0" font-family="DejaVu Sans, sans-serif" font-size="27" text-anchor="middle" font-weight="normal"><tspan x="740.0" dy="0">фон</tspan></text><text x="520" y="315" fill="#f2f2f2" font-family="DejaVu Sans, sans-serif" font-size="29" text-anchor="middle" font-weight="normal"><tspan x="520" dy="0">Смещённая анализирующая область</tspan></text><rect x="50" y="350" width="965" height="145" rx="12" fill="#101820" stroke="#b8c7d1" stroke-width="2.5"/><text x="532.5" y="431.14" fill="#b8c7d1" font-family="DejaVu Sans, sans-serif" font-size="27" text-anchor="middle" font-weight="normal"><tspan x="532.5" dy="0"></tspan></text><rect x="875" y="353" width="135" height="139" fill="#ff9ab0" opacity=".18"/><path d="M875,350 L875,495" stroke="#ffcc8a" stroke-width="4"/><text x="875" y="530" fill="#ffcc8a" font-family="DejaVu Sans, sans-serif" font-size="24" text-anchor="middle" font-weight="normal"><tspan x="875" dy="0">барьер</tspan></text><rect x="1100" y="388" width="135" height="62" rx="12" fill="#101820" stroke="#7cc7ff" stroke-width="2.5"/><text x="1167.5" y="426.04" fill="#7cc7ff" font-family="DejaVu Sans, sans-serif" font-size="22" text-anchor="middle" font-weight="normal"><tspan x="1167.5" dy="0">детектор</tspan></text><path d="M1023,418 L1090,418" fill="none" stroke="#7cc7ff" stroke-width="3" marker-end="url(#arrow)"/><text x="942.5" y="420" fill="#ff9ab0" font-family="DejaVu Sans, sans-serif" font-size="27" text-anchor="middle" font-weight="normal"><tspan x="942.5" dy="0">фон</tspan></text></svg>
